<?xml version="1.0" encoding="UTF-8" standalone="no"?> <!-- Created with Vectornator for iOS (http://vectornator.io/) --><!DOCTYPE svg PUBLIC "-//W3C//DTD SVG 1.1//EN" "http://www.w3.org/Graphics/SVG/1.1/DTD/svg11.dtd">
<svg height="100%" style="fill-rule:nonzero;clip-rule:evenodd;stroke-linecap:round;stroke-linejoin:round;" xmlns:xlink="http://www.w3.org/1999/xlink" xmlns="http://www.w3.org/2000/svg" xml:space="preserve" width="100%" xmlns:vectornator="http://vectornator.io" version="1.1" viewBox="0 0 481.95 198.45">
<metadata>
<vectornator:setting key="DimensionsVisible" value="1"/>
<vectornator:setting key="PencilOnly" value="0"/>
<vectornator:setting key="SnapToPoints" value="0"/>
<vectornator:setting key="OutlineMode" value="0"/>
<vectornator:setting key="CMYKEnabledKey" value="0"/>
<vectornator:setting key="RulersVisible" value="1"/>
<vectornator:setting key="SnapToEdges" value="0"/>
<vectornator:setting key="GuidesVisible" value="1"/>
<vectornator:setting key="DisplayWhiteBackground" value="0"/>
<vectornator:setting key="doHistoryDisabled" value="0"/>
<vectornator:setting key="SnapToGuides" value="1"/>
<vectornator:setting key="TimeLapseWatermarkDisabled" value="0"/>
<vectornator:setting key="Units" value="Millimeters"/>
<vectornator:setting key="DynamicGuides" value="0"/>
<vectornator:setting key="IsolateActiveLayer" value="0"/>
<vectornator:setting key="SnapToGrid" value="0"/>
</metadata>
<defs/>
<g id="Livello 1" vectornator:layerName="Livello 1">
<path d="M340.026+49.9015L346.62+52.267C348.034+52.7743+348.84+54.1359+348.42+55.3082L341.63+74.2371C341.21+75.4094+339.723+75.9485+338.308+75.4411L331.714+73.0757C330.3+72.5683+329.495+71.2067+329.915+70.0344L336.704+51.1055C337.125+49.9332+338.612+49.3942+340.026+49.9015Z" opacity="1" fill="#ffffff"/>
<path d="M379.926+14.0035L386.549+7.70293C387.97+6.35158+390.947+7.07224+393.199+9.31256L429.56+45.4862C431.812+47.7265+432.486+50.6381+431.065+51.9895L424.442+58.29C423.021+59.6413+420.044+58.9207+417.792+56.6804L381.431+20.5068C379.179+18.2664+378.505+15.3548+379.926+14.0035Z" opacity="1" fill="#ffd369"/>
<path d="M424.495+7.31092L430.849+13.8829C432.212+15.2924+431.543+18.2457+429.354+20.4791L394.018+56.5414C391.83+58.7748+388.951+59.4427+387.588+58.0331L381.234+51.4612C379.871+50.0516+380.541+47.0984+382.729+44.8649L418.065+8.80266C420.254+6.56923+423.132+5.90136+424.495+7.31092Z" opacity="1" fill="#ffd369"/>
<path d="M39+139.594C37.8197+139.594+36.7598+139.438+35.8203+139.124C34.8809+138.811+34.11+138.36+33.5078+137.769C32.9056+137.179+32.4961+136.487+32.2793+135.692L21.3311+135.692C21.4515+137.836+22.138+139.817+23.3906+141.636C24.6432+143.454+26.5342+144.918+29.0635+146.026C31.5928+147.134+34.8327+147.688+38.7832+147.688C40.9753+147.688+43.1733+147.447+45.3774+146.965C47.5815+146.484+49.611+145.683+51.4658+144.562C53.3206+143.442+54.8081+141.961+55.9282+140.118C57.0483+138.275+57.6084+135.981+57.6084+133.235L57.6084+94.9702L46.1904+94.9702L46.1904+100.824L45.6484+100.824C45.1667+99.5952+44.4199+98.5112+43.4082+97.5717C42.3965+96.6323+41.1619+95.8915+39.7046+95.3496C38.2472+94.8076+36.6152+94.5366+34.8086+94.5366C31.918+94.5366+29.4067+95.2291+27.2749+96.6142C25.1431+97.9993+23.487+100.041+22.3066+102.739C21.1263+105.437+20.5361+108.785+20.5361+112.784L20.5361+114.663C20.5361+118.661+21.1263+122.022+22.3066+124.744C23.487+127.466+25.1491+129.513+27.293+130.886C29.4368+132.259+31.9421+132.946+34.8086+132.946C36.1816+132.946+37.4523+132.795+38.6206+132.494C39.7889+132.193+40.8307+131.765+41.7461+131.211C42.6615+130.657+43.4443+130.013+44.0947+129.278C44.7451+128.544+45.2389+127.743+45.5762+126.875L46.1182+126.875L46.1182+132.259C46.1182+134.596+45.5039+136.402+44.2754+137.679C43.0469+138.956+41.2884+139.594+39+139.594ZM39.2891+103.498C40.6621+103.498+41.8545+103.859+42.8662+104.581C43.8779+105.304+44.6728+106.37+45.251+107.779C45.8291+109.188+46.1182+110.929+46.1182+113L46.1182+115.168C46.1182+117.216+45.8351+118.95+45.269+120.372C44.703+121.793+43.9141+122.871+42.9023+123.605C41.8906+124.34+40.6862+124.707+39.2891+124.707C37.8919+124.707+36.6755+124.34+35.6396+123.605C34.6038+122.871+33.8029+121.793+33.2368+120.372C32.6707+118.95+32.3877+117.216+32.3877+115.168L32.3877+113C32.3877+110.905+32.6707+109.152+33.2368+107.743C33.8029+106.334+34.6038+105.274+35.6396+104.563C36.6755+103.853+37.8919+103.498+39.2891+103.498Z" opacity="1" fill="#ffffff"/>
<path d="M81.0225+134.283C83.8649+134.283+86.328+133.891+88.4116+133.108C90.4953+132.325+92.2176+131.296+93.5786+130.019C94.9396+128.742+95.9814+127.339+96.7041+125.81C97.4268+124.28+97.8603+122.756+98.0049+121.239L87.5264+121.239C87.3818+122.178+87.0085+122.991+86.4062+123.678C85.804+124.364+85.0452+124.888+84.1299+125.249C83.2145+125.611+82.1787+125.791+81.0225+125.791C79.0472+125.791+77.3791+125.093+76.0181+123.696C74.6571+122.299+73.9766+120.372+73.9766+117.914L73.9766+116.614L98.2578+116.614L98.2578+112.748C98.2578+108.942+97.5291+105.659+96.0718+102.901C94.6144+100.143+92.5669+98.0174+89.9292+96.5239C87.2915+95.0304+84.1781+94.2836+80.5889+94.2836C77.1924+94.2836+74.1512+94.9762+71.4653+96.3613C68.7795+97.7464+66.6536+99.7939+65.0879+102.504C63.5221+105.214+62.7393+108.568+62.7393+112.567L62.7393+115.638C62.7393+119.733+63.5101+123.16+65.0518+125.918C66.5934+128.676+68.7373+130.76+71.4834+132.169C74.2295+133.578+77.4092+134.283+81.0225+134.283ZM73.9766+109.965C73.9766+109.965+73.9766+109.959+73.9766+109.947C73.9766+109.935+73.9766+109.929+73.9766+109.929C73.9766+108.508+74.2596+107.237+74.8257+106.117C75.3918+104.997+76.1746+104.112+77.1743+103.461C78.174+102.811+79.3363+102.486+80.6611+102.486C81.986+102.486+83.1423+102.811+84.1299+103.461C85.1175+104.112+85.8823+104.997+86.4243+106.117C86.9663+107.237+87.2373+108.508+87.2373+109.929C87.2373+109.929+87.2373+109.935+87.2373+109.947C87.2373+109.959+87.2373+109.965+87.2373+109.965L73.9766+109.965Z" opacity="1" fill="#ffffff"/>
<path d="M106.713+94.9702L100.823+94.9702L100.823+103.714L106.424+103.714L106.424+122.576C106.424+125.249+106.894+127.405+107.833+129.043C108.772+130.681+110.254+131.868+112.277+132.602C114.301+133.337+116.963+133.705+120.263+133.705C121.419+133.705+122.443+133.662+123.334+133.578C124.225+133.494+124.888+133.428+125.321+133.379L125.321+125.033C125.129+125.057+124.815+125.075+124.382+125.087C123.948+125.099+123.503+125.105+123.045+125.105C121.262+125.105+119.95+124.774+119.106+124.111C118.263+123.449+117.842+122.262+117.842+120.552L117.842+103.714L125.213+103.714L125.213+94.9702L117.842+94.9702L117.842+86.0092L106.713+86.0092L106.713+94.9702Z" opacity="1" fill="#ffffff"/>
<path d="M155.89+133.56L167.38+133.56L167.38+110.796C167.38+109.11+167.645+107.749+168.175+106.713C168.705+105.678+169.409+104.925+170.289+104.455C171.168+103.985+172.125+103.75+173.161+103.75C174.197+103.75+175.154+103.973+176.034+104.419C176.913+104.865+177.618+105.593+178.147+106.605C178.677+107.617+178.942+109.026+178.942+110.832L178.942+133.56L189.963+133.56L189.963+110.869C189.963+109.279+190.204+107.96+190.686+106.912C191.167+105.864+191.848+105.075+192.727+104.545C193.606+104.015+194.624+103.75+195.78+103.75C196.864+103.75+197.84+103.985+198.707+104.455C199.574+104.925+200.261+105.659+200.767+106.659C201.272+107.659+201.525+108.978+201.525+110.616L201.525+133.56L213.016+133.56L213.016+107.111C213.016+103.329+211.95+100.264+209.818+97.915C207.686+95.5663+204.645+94.392+200.694+94.392C198.526+94.392+196.635+94.7413+195.021+95.4399C193.408+96.1385+192.101+97.0117+191.101+98.0595C190.101+99.1074+189.409+100.173+189.023+101.257L188.554+101.257C188.168+99.9083+187.512+98.7219+186.584+97.6982C185.657+96.6744+184.477+95.8675+183.043+95.2773C181.61+94.6871+179.918+94.392+177.967+94.392C175.895+94.392+174.149+94.7413+172.728+95.4399C171.306+96.1385+170.18+96.9936+169.349+98.0053C168.518+99.017+167.946+100.017+167.633+101.004L167.055+101.004L167.055+94.9702L155.89+94.9702L155.89+133.56Z" opacity="1" fill="#ffffff"/>
<path d="M253.195+124.129L231.877+124.129L231.877+113.073L251.858+113.073L251.858+104.401L231.877+104.401L231.877+93.6694L253.195+93.6694L253.195+84.2387L220.098+84.2387L220.098+133.56L253.195+133.56L253.195+124.129Z" opacity="1" fill="#ffffff"/>
<path d="M280.62+133.56L280.62+93.9584L294.098+93.9584L294.098+84.2387L255.327+84.2387L255.327+93.9584L268.769+93.9584L268.769+133.56L280.62+133.56Z" opacity="1" fill="#ffd369"/>
<path d="M339.517+133.56L339.517+84.2387L327.665+84.2387L327.665+103.714L309.454+103.714L309.454+84.2387L297.566+84.2387L297.566+133.56L309.454+133.56L309.454+113.362L327.665+113.362L327.665+133.56L339.517+133.56Z" opacity="1" fill="#ffd369"/>
<path d="M363.509+134.283C366.351+134.283+368.814+133.891+370.898+133.108C372.982+132.325+374.704+131.296+376.065+130.019C377.426+128.742+378.468+127.339+379.19+125.81C379.913+124.28+380.347+122.756+380.491+121.239L370.013+121.239C369.868+122.178+369.495+122.991+368.893+123.678C368.29+124.364+367.532+124.888+366.616+125.249C365.701+125.611+364.665+125.791+363.509+125.791C361.534+125.791+359.865+125.093+358.504+123.696C357.143+122.299+356.463+120.372+356.463+117.914L356.463+116.614L380.744+116.614L380.744+112.748C380.744+108.942+380.015+105.659+378.558+102.901C377.101+100.143+375.053+98.0174+372.416+96.5239C369.778+95.0304+366.664+94.2836+363.075+94.2836C359.679+94.2836+356.638+94.9762+353.952+96.3613C351.266+97.7464+349.14+99.7939+347.574+102.504C346.008+105.214+345.226+108.568+345.226+112.567L345.226+115.638C345.226+119.733+345.996+123.16+347.538+125.918C349.08+128.676+351.224+130.76+353.97+132.169C356.716+133.578+359.896+134.283+363.509+134.283ZM356.463+109.965C356.463+109.965+356.463+109.959+356.463+109.947C356.463+109.935+356.463+109.929+356.463+109.929C356.463+108.508+356.746+107.237+357.312+106.117C357.878+104.997+358.661+104.112+359.661+103.461C360.66+102.811+361.823+102.486+363.147+102.486C364.472+102.486+365.629+102.811+366.616+103.461C367.604+104.112+368.369+104.997+368.911+106.117C369.453+107.237+369.724+108.508+369.724+109.929C369.724+109.929+369.724+109.935+369.724+109.947C369.724+109.959+369.724+109.965+369.724+109.965L356.463+109.965Z" opacity="1" fill="#ffd369"/>
<path d="M385.803+133.56L397.654+133.56L397.654+112.711C397.654+111.001+397.919+109.496+398.449+108.195C398.979+106.894+399.84+105.882+401.033+105.16C402.225+104.437+403.821+104.076+405.82+104.076C406.663+104.076+407.47+104.118+408.241+104.202C409.012+104.286+409.602+104.401+410.012+104.545L410.012+94.7534C409.65+94.6329+409.187+94.5486+408.621+94.5004C408.055+94.4523+407.362+94.4282+406.543+94.4282C404.857+94.4282+403.405+94.7654+402.189+95.4399C400.972+96.1144+400.003+96.9334+399.28+97.8969C398.558+98.8605+398.076+99.7758+397.835+100.643L397.329+100.643L397.329+94.9702L385.803+94.9702L385.803+133.56Z" opacity="1" fill="#ffd369"/>
<path d="M430.21+134.283C433.052+134.283+435.515+133.891+437.599+133.108C439.683+132.325+441.405+131.296+442.766+130.019C444.127+128.742+445.169+127.339+445.892+125.81C446.614+124.28+447.048+122.756+447.192+121.239L436.714+121.239C436.569+122.178+436.196+122.991+435.594+123.678C434.992+124.364+434.233+124.888+433.317+125.249C432.402+125.611+431.366+125.791+430.21+125.791C428.235+125.791+426.567+125.093+425.206+123.696C423.845+122.299+423.164+120.372+423.164+117.914L423.164+116.614L447.445+116.614L447.445+112.748C447.445+108.942+446.717+105.659+445.259+102.901C443.802+100.143+441.754+98.0174+439.117+96.5239C436.479+95.0304+433.366+94.2836+429.776+94.2836C426.38+94.2836+423.339+94.9762+420.653+96.3613C417.967+97.7464+415.841+99.7939+414.275+102.504C412.71+105.214+411.927+108.568+411.927+112.567L411.927+115.638C411.927+119.733+412.698+123.16+414.239+125.918C415.781+128.676+417.925+130.76+420.671+132.169C423.417+133.578+426.597+134.283+430.21+134.283ZM423.164+109.965C423.164+109.965+423.164+109.959+423.164+109.947C423.164+109.935+423.164+109.929+423.164+109.929C423.164+108.508+423.447+107.237+424.013+106.117C424.579+104.997+425.362+104.112+426.362+103.461C427.361+102.811+428.524+102.486+429.849+102.486C431.174+102.486+432.33+102.811+433.317+103.461C434.305+104.112+435.07+104.997+435.612+106.117C436.154+107.237+436.425+108.508+436.425+109.929C436.425+109.929+436.425+109.935+436.425+109.947C436.425+109.959+436.425+109.965+436.425+109.965L423.164+109.965Z" opacity="1" fill="#ffd369"/>
<path d="M372.526+30.4801L375.433+36.854C376.056+38.2211+375.643+39.7483+374.51+40.2651L356.213+48.6091C355.08+49.1259+353.656+48.4366+353.032+47.0695L350.126+40.6955C349.503+39.3284+349.916+37.8012+351.049+37.2844L369.346+28.9404C370.479+28.4236+371.903+29.113+372.526+30.4801Z" opacity="1" fill="#ffffff"/>
<path d="M292.573+182.695L292.525+189.111C292.515+190.487+291.61+191.595+290.505+191.587L272.654+191.445C271.548+191.436+270.66+190.314+270.671+188.938L270.719+182.522C270.729+181.146+271.634+180.037+272.739+180.046L290.59+180.187C291.696+180.196+292.583+181.319+292.573+182.695Z" opacity="1" fill="#ffffff"/>
<path d="M329.52+140.247C328.994+140.464+328.588+140.871+328.423+141.413L323.102+158.927C322.771+160.012+323.53+161.242+324.804+161.664L330.74+163.632C332.014+164.054+333.323+163.526+333.654+162.441L338.971+144.899C339.302+143.814+338.547+142.612+337.273+142.19L331.337+140.222C330.7+140.011+330.045+140.03+329.52+140.247Z" opacity="1" fill="#ffffff"/>
<path d="M316.621+165.716L301.001+174.496C300.034+175.04+299.778+176.457+300.427+177.665L303.434+183.29C304.082+184.499+305.391+185.035+306.358+184.491L321.978+175.711C322.945+175.167+323.201+173.75+322.552+172.542L319.545+166.917C318.897+165.708+317.588+165.172+316.621+165.716Z" opacity="1" fill="#ffffff"/>
<path d="M231.055+140.1C231.564+140.318+231.954+140.726+232.109+141.269L237.094+158.792C237.403+159.877+236.65+161.104+235.406+161.521L229.604+163.466C228.359+163.884+227.089+163.351+226.78+162.266L221.8+144.714C221.49+143.629+222.239+142.43+223.484+142.013L229.285+140.068C229.908+139.86+230.545+139.881+231.055+140.1Z" opacity="1" fill="#ffffff"/>
<path d="M244.278+166.344L259.159+175.542C260.08+176.112+260.277+177.534+259.601+178.723L256.466+184.258C255.79+185.447+254.495+185.946+253.574+185.376L238.694+176.178C237.772+175.609+237.575+174.186+238.251+172.998L241.387+167.463C242.063+166.274+243.357+165.775+244.278+166.344Z" opacity="1" fill="#ffffff"/>
<path d="M292.573+182.695L292.525+189.111C292.515+190.487+291.61+191.595+290.505+191.587L272.654+191.445C271.548+191.436+270.66+190.314+270.671+188.938L270.719+182.522C270.729+181.146+271.634+180.037+272.739+180.046L290.59+180.187C291.696+180.196+292.583+181.319+292.573+182.695Z" opacity="1" fill="#ffffff"/>
<path d="M329.52+140.247C328.994+140.464+328.588+140.871+328.423+141.413L323.102+158.927C322.771+160.012+323.53+161.242+324.804+161.664L330.74+163.632C332.014+164.054+333.323+163.526+333.654+162.441L338.971+144.899C339.302+143.814+338.547+142.612+337.273+142.19L331.337+140.222C330.7+140.011+330.045+140.03+329.52+140.247Z" opacity="1" fill="#ffffff"/>
<path d="M316.621+165.716L301.001+174.496C300.034+175.04+299.778+176.457+300.427+177.665L303.434+183.29C304.082+184.499+305.391+185.035+306.358+184.491L321.978+175.711C322.945+175.167+323.201+173.75+322.552+172.542L319.545+166.917C318.897+165.708+317.588+165.172+316.621+165.716Z" opacity="1" fill="#ffffff"/>
<path d="M231.055+140.1C231.564+140.318+231.954+140.726+232.109+141.269L237.094+158.792C237.403+159.877+236.65+161.104+235.406+161.521L229.604+163.466C228.359+163.884+227.089+163.351+226.78+162.266L221.8+144.714C221.49+143.629+222.239+142.43+223.484+142.013L229.285+140.068C229.908+139.86+230.545+139.881+231.055+140.1Z" opacity="1" fill="#ffffff"/>
<path d="M244.278+166.344L259.159+175.542C260.08+176.112+260.277+177.534+259.601+178.723L256.466+184.258C255.79+185.447+254.495+185.946+253.574+185.376L238.694+176.178C237.772+175.609+237.575+174.186+238.251+172.998L241.387+167.463C242.063+166.274+243.357+165.775+244.278+166.344Z" opacity="1" fill="#ffffff"/>
<path d="M157.532+36.9796L157.509+30.5636C157.504+29.1875+158.396+28.0691+159.502+28.0656L177.353+28.0087C178.458+28.0052+179.359+29.1179+179.364+30.494L179.387+36.91C179.392+38.2861+178.5+39.4046+177.394+39.4081L159.543+39.465C158.437+39.4685+157.537+38.3558+157.532+36.9796Z" opacity="1" fill="#ffffff"/>
<path d="M118.506+79.6851C119.029+79.4621+119.43+79.0513+119.589+78.507L124.716+60.9352C125.034+59.8467+124.262+58.6249+122.983+58.2169L117.026+56.3153C115.747+55.9073+114.444+56.4498+114.125+57.5384L109.003+75.1384C108.685+76.227+109.453+77.4204+110.731+77.8284L116.689+79.7301C117.328+79.9341+117.983+79.9081+118.506+79.6851Z" opacity="1" fill="#ffffff"/>
<path d="M132.173+51.9715L147.694+43.0186C148.654+42.4638+148.895+41.044+148.233+39.843L145.164+34.2515C144.501+33.0505+143.186+32.5286+142.226+33.0834L126.705+42.0363C125.744+42.5911+125.503+44.0108+126.165+45.2118L129.235+50.8034C129.897+52.0044+131.212+52.5262+132.173+51.9715Z" opacity="1" fill="#ffffff"/>
<path d="M219.52+78.8889C219.008+78.6756+218.613+78.2723+218.453+77.7313L213.274+60.2648C212.952+59.1828+213.691+57.9478+214.931+57.5166L220.711+55.5073C221.952+55.0762+223.227+55.5945+223.548+56.6766L228.723+74.1714C229.045+75.2534+228.31+76.4601+227.069+76.8912L221.289+78.9005C220.669+79.1161+220.032+79.1022+219.52+78.8889Z" opacity="1" fill="#ffffff"/>
<path d="M206.006+52.7925L191.024+43.7605C190.096+43.2009+189.883+41.7811+190.546+40.5848L193.62+35.0157C194.283+33.8195+195.571+33.3055+196.499+33.8651L211.481+42.8971C212.408+43.4567+212.621+44.8765+211.958+46.0727L208.885+51.6419C208.222+52.8381+206.933+53.3521+206.006+52.7925Z" opacity="1" fill="#ffffff"/>
</g>
</svg>
